<svg width="115" height="31" viewBox="0 0 115 31" fill="none" xmlns="http://www.w3.org/2000/svg">
<path d="M103.274 29.5982C103.229 29.5982 103.229 29.5528 103.183 29.5528C102.411 29.5073 101.684 29.3257 101.002 29.0984C100.23 28.8258 99.5485 28.4624 98.9125 27.9626C98.1855 27.372 97.6403 26.5997 97.2768 25.7364C97.0043 25.0549 96.8224 24.3735 96.6862 23.6918C96.5953 23.2376 96.5499 22.7833 96.5044 22.3289C96.459 21.9655 96.459 21.602 96.459 21.2386C96.459 20.5116 96.5044 19.7847 96.6408 19.0578C96.777 18.4671 96.9133 17.922 97.0952 17.3313C97.3223 16.559 97.7312 15.8775 98.2764 15.2414C98.867 14.5145 99.5939 13.9693 100.457 13.5604C101.002 13.3332 101.548 13.1515 102.093 13.0607C102.502 13.0152 102.865 12.9698 103.274 12.9243C103.774 12.8789 104.274 12.8789 104.728 12.8789C105.864 12.9698 107 13.1969 108.045 13.7876C108.408 14.0147 108.772 14.2873 109.09 14.5145C109.862 15.1051 110.362 15.9229 110.725 16.7862C111.043 17.4676 111.316 18.24 111.407 19.0124C111.498 19.5122 111.543 19.9664 111.588 20.4662C111.634 20.8751 111.634 21.2386 111.634 21.6475C111.588 22.238 111.543 22.8287 111.452 23.4647C111.316 24.4189 110.952 25.3275 110.543 26.1907C110.316 26.6451 109.998 27.054 109.68 27.4175C109.317 27.8264 108.908 28.1898 108.454 28.5078C107.817 28.9167 107.136 29.1893 106.409 29.3709C106 29.4618 105.546 29.5528 105.137 29.6437C104.91 29.6891 104.637 29.6891 104.41 29.6891C104.364 29.6891 104.319 29.6891 104.274 29.7344C103.819 29.5982 103.547 29.5982 103.274 29.5982ZM107.318 21.0115C107.318 20.9206 107.318 20.7387 107.272 20.5571C107.227 20.1936 107.227 19.7847 107.136 19.4213C107.045 19.0124 106.909 18.6035 106.727 18.1946C106.5 17.7402 106.182 17.3767 105.818 17.0587C105.364 16.6953 104.864 16.5135 104.319 16.4227C103.819 16.3772 103.319 16.4681 102.82 16.6498C102.275 16.8316 101.82 17.1042 101.502 17.604C100.866 18.4671 100.639 19.4667 100.639 20.5116C100.639 21.0115 100.684 21.5566 100.684 22.0564C100.684 22.3744 100.73 22.6924 100.775 22.9649C100.912 23.4647 101.048 23.9646 101.184 24.4189C101.32 24.8277 101.593 25.1913 101.957 25.4638C102.593 25.9182 103.319 26.1907 104.092 26.1453C104.637 26.0998 105.137 25.9635 105.591 25.6455C106.227 25.1458 106.682 24.5551 106.909 23.7827C107.227 22.9196 107.318 22.0109 107.318 21.0115Z" fill="black"/>
<path d="M81.4582 29.6219C81.3218 29.6219 81.2309 29.5764 81.0947 29.5764C81.0947 29.531 81.0947 29.4855 81.0947 29.4401C81.0947 26.0781 81.0947 22.6706 81.0947 19.3086C81.0947 18.8997 81.1855 18.4908 81.2309 18.0819C81.2764 17.5822 81.4127 17.0824 81.5944 16.5826C81.8669 15.8557 82.2304 15.2197 82.8211 14.6745C83.2755 14.2656 83.8661 13.9475 84.4113 13.6749C85.1383 13.3115 85.9106 13.0843 86.683 12.9026C87.0465 12.8117 87.4554 12.8117 87.8188 12.7663C88.1823 12.7663 88.5912 12.7209 88.9547 12.7663C89.8178 12.8572 90.6356 13.0389 91.4535 13.3569C92.0895 13.6295 92.7257 13.9021 93.2708 14.311C93.7706 14.629 94.134 15.0379 94.4066 15.5377C94.8155 16.2192 95.0428 16.9461 95.179 17.7184C95.2699 18.1273 95.3153 18.5363 95.3153 18.9906C95.3608 20.8079 95.3608 22.5797 95.3608 24.3972C95.3608 26.0781 95.3608 27.7137 95.3608 29.3946C95.3608 29.4401 95.3608 29.531 95.3608 29.5764C95.2699 29.5764 95.179 29.6219 95.0428 29.6219C94.8155 29.6219 94.543 29.6219 94.3159 29.6219C94.2704 29.6219 94.2704 29.5764 94.2249 29.5764C93.498 29.5764 92.7711 29.5764 92.0442 29.5764C91.9987 29.5764 91.9987 29.5764 91.9533 29.6219C91.6807 29.6219 91.408 29.6219 91.1809 29.6219C91.09 29.5764 91.09 29.531 91.09 29.4401C91.09 25.8964 91.09 22.3526 91.09 18.8088C91.09 18.5363 91.0445 18.2637 90.9536 17.991C90.6811 17.2186 90.0905 16.7644 89.3636 16.4918C88.8638 16.31 88.3185 16.2646 87.7734 16.31C87.1827 16.4009 86.6376 16.6281 86.1832 17.037C85.6834 17.4913 85.4563 18.1273 85.4563 18.7634C85.4563 22.3072 85.4563 25.851 85.4563 29.3946C85.4563 29.4401 85.4563 29.531 85.4563 29.5764C85.3654 29.5764 85.2745 29.5764 85.2292 29.5764C85.0928 29.5764 84.9564 29.5764 84.8202 29.6219C84.593 29.6219 84.3204 29.6219 84.0933 29.6219C84.0479 29.6219 84.0479 29.5764 84.0024 29.5764C83.3662 29.5764 82.7302 29.5764 82.0942 29.5764C82.0488 29.5764 82.0488 29.5764 82.0033 29.6219C81.8217 29.6219 81.6398 29.6219 81.4582 29.6219Z" fill="black"/>
<path d="M44.4734 29.6097C44.3825 29.6097 44.2462 29.5642 44.1553 29.5642C44.1553 29.5188 44.1553 29.4733 44.1553 29.4278C44.1553 26.0658 44.1553 22.7038 44.1553 19.3418C44.1553 18.8875 44.2462 18.3877 44.2916 17.9335C44.3371 17.3882 44.5187 16.9338 44.7005 16.4341C44.8824 15.9798 45.1095 15.5709 45.4275 15.162C45.9727 14.4805 46.6997 14.117 47.4266 13.7081C48.1535 13.3447 48.9259 13.1175 49.6983 12.9358C50.0617 12.8449 50.4706 12.8449 50.8341 12.7995C51.1976 12.7995 51.6065 12.7541 51.9699 12.7995C52.8785 12.8904 53.7418 13.0721 54.5596 13.3901C55.1502 13.6173 55.6955 13.8899 56.2407 14.2533C56.9222 14.7077 57.3766 15.2983 57.6946 16.0252C57.9217 16.525 58.1035 17.0702 58.1942 17.6153C58.2397 18.0697 58.3306 18.524 58.376 18.9784C58.4215 19.2055 58.4215 19.4327 58.4215 19.6598C58.4215 22.8856 58.4215 26.1113 58.4215 29.3824C58.4215 29.4278 58.4215 29.5188 58.4215 29.5642C58.2851 29.5642 58.1942 29.6097 58.1035 29.6097C57.8762 29.6097 57.6037 29.6097 57.3766 29.6097C57.3311 29.6097 57.3311 29.5642 57.2857 29.5642C56.5587 29.5642 55.8318 29.5642 55.1049 29.5642C55.0594 29.5642 55.0594 29.5642 55.014 29.6097C54.7413 29.6097 54.4687 29.6097 54.2416 29.6097C54.2416 29.5642 54.1962 29.4733 54.1962 29.4278C54.1962 26.1113 54.1962 22.7493 54.1962 19.4327C54.1962 19.16 54.1962 18.842 54.1507 18.5695C54.1053 18.2515 54.0143 17.9789 53.9236 17.7062C53.6054 17.1156 53.1058 16.7522 52.4696 16.525C51.9699 16.3432 51.4247 16.2978 50.8795 16.3432C50.2434 16.4341 49.6983 16.6613 49.2439 17.1156C48.7441 17.57 48.517 18.206 48.517 18.842C48.517 22.3858 48.517 25.9296 48.517 29.4278C48.517 29.4733 48.517 29.5642 48.517 29.6097C48.3806 29.6097 48.2444 29.6551 48.1081 29.6551C47.9717 29.6551 47.79 29.6551 47.6537 29.6551C47.6082 29.6551 47.6082 29.6097 47.5628 29.6097C46.7451 29.6097 45.9273 29.6097 45.1095 29.6097C45.064 29.6097 45.064 29.6097 45.0186 29.6551C44.7914 29.6097 44.6096 29.6097 44.4734 29.6097Z" fill="black"/>
<path d="M36.7201 1.02722C36.7201 7.80612 36.7201 14.5383 36.7201 21.3172C36.7201 21.3639 36.7201 21.4574 36.7201 21.5042C36.2717 21.5042 35.8235 21.5509 35.3304 21.5509C34.7028 21.5976 34.0751 21.5976 33.4476 21.5976C32.82 21.5976 32.1923 21.6445 31.5648 21.6445C30.982 21.6445 30.3991 21.6912 29.8164 21.6912C29.8164 21.6445 29.8164 21.5509 29.8164 21.5042C29.8164 14.6785 29.8164 7.80612 29.8164 0.980469C32.1027 1.02722 34.4337 1.02722 36.7201 1.02722Z" fill="black"/>
<path d="M75.2314 29.6413C75.2314 24.0075 75.2314 18.4193 75.2314 12.7402C75.2769 12.7402 75.3222 12.7402 75.4131 12.7402C76.0493 12.7402 76.6853 12.7402 77.3213 12.7402C77.8211 12.7402 78.321 12.8311 78.7297 13.1946C79.1386 13.5126 79.4568 13.9215 79.5475 14.4212C79.593 14.5575 79.593 14.6938 79.593 14.8756C79.593 19.7824 79.593 24.7344 79.593 29.6413C78.0937 29.6413 76.6398 29.6413 75.2314 29.6413Z" fill="black"/>
<path d="M0.820312 15.6445C3.13742 15.6445 5.45453 15.6445 7.81707 15.6445C7.81707 15.69 7.81707 15.7354 7.81707 15.7808C7.81707 17.3709 7.81707 18.9611 7.81707 20.5513C7.81707 20.5967 7.81707 20.5967 7.81707 20.6422C5.49996 20.6422 3.13742 20.6422 0.820312 20.6422C0.820312 19.0066 0.820312 17.3255 0.820312 15.6445Z" fill="black"/>
<path d="M0.819336 20.6445C3.13645 20.6445 5.49898 20.6445 7.81609 20.6445C7.81609 21.9167 7.81609 23.1434 7.81609 24.4154C7.81609 24.7789 7.81609 25.1424 7.81609 25.506C5.49898 25.506 3.13645 25.506 0.819336 25.506C0.819336 23.8703 0.819336 22.2802 0.819336 20.6445Z" fill="black"/>
<path d="M0.819336 25.4883C3.13645 25.4883 5.49898 25.4883 7.81609 25.4883C7.81609 26.8059 7.81609 28.1688 7.81609 29.5319C5.49898 29.5319 3.13645 29.5319 0.819336 29.5319C0.819336 28.2143 0.819336 26.8514 0.819336 25.4883Z" fill="black"/>
<path d="M114.038 28.5407C113.992 28.6316 113.947 28.7225 113.901 28.768C113.629 29.2676 113.174 29.5858 112.584 29.5858C112.129 29.5858 111.766 29.4494 111.448 29.1769C111.175 28.9496 110.994 28.6316 110.994 28.2227C110.948 27.8138 111.039 27.4503 111.312 27.1323C111.584 26.8143 111.902 26.6325 112.311 26.5871C112.856 26.4963 113.356 26.6325 113.72 27.0869C113.856 27.2232 113.901 27.4049 113.992 27.5412C114.038 27.5867 114.038 27.6321 114.038 27.6776C114.038 27.9502 114.038 28.2227 114.038 28.5407ZM112.538 29.2676C113.129 29.2676 113.629 28.768 113.629 28.1318C113.629 27.4503 113.083 26.9505 112.538 26.9505C111.857 26.9052 111.357 27.4958 111.357 28.0863C111.402 28.7225 111.902 29.2676 112.538 29.2676Z" fill="black"/>
<path d="M74.2829 18.6061C73.9195 18.6061 73.556 18.6061 73.1926 18.6061C72.1476 18.6061 71.1481 18.6061 70.1031 18.6061C69.9669 18.6061 69.8759 18.5607 69.8305 18.4245C69.6488 18.061 69.467 17.6975 69.149 17.3795C68.8765 17.0614 68.5585 16.7888 68.195 16.6525C67.8768 16.5162 67.5134 16.4254 67.1499 16.38C66.3321 16.3345 65.6052 16.5617 64.9691 17.0159C64.6511 17.1977 64.4693 17.5157 64.2877 17.7883C63.9242 18.379 63.7424 19.015 63.6516 19.6512C63.5607 20.2417 63.5607 20.8323 63.6062 21.423C63.6517 22.1499 63.7424 22.8768 63.9242 23.6037C64.1059 24.2398 64.3331 24.8305 64.8782 25.3303C65.1509 25.5574 65.469 25.739 65.787 25.8754C66.2413 26.0572 66.741 26.1479 67.1954 26.1025C67.7406 26.0572 68.2403 25.8754 68.6492 25.5119C69.1036 25.1485 69.467 24.6941 69.7396 24.149C69.785 24.0581 69.8305 23.9672 69.876 23.8763C69.9214 23.7401 69.9669 23.6946 70.1485 23.6946C71.4662 23.6946 72.7836 23.6946 74.1013 23.6946C74.1467 23.6946 74.1922 23.6946 74.2829 23.6946C74.2376 23.8763 74.2376 24.0581 74.1922 24.1945C73.9649 24.785 73.7833 25.3303 73.5106 25.9208C73.1471 26.6932 72.602 27.3292 71.966 27.8745C71.2389 28.5105 70.3758 28.9648 69.467 29.1919C68.8765 29.3283 68.2857 29.5099 67.6952 29.5099C67.2863 29.5099 66.8774 29.5554 66.4684 29.5554C65.469 29.5099 64.5148 29.2828 63.5607 28.8739C62.97 28.6468 62.3795 28.3288 61.8796 27.9199C61.0618 27.2838 60.5167 26.4206 60.1078 25.4665C59.8352 24.8305 59.6989 24.1036 59.5625 23.4221C59.4718 23.0586 59.4718 22.6497 59.4263 22.2863C59.3809 21.8319 59.3809 21.3776 59.3809 20.9232C59.3809 20.2417 59.4718 19.6057 59.5625 18.9696C59.6989 18.3336 59.8352 17.6975 60.0623 17.1068C60.2894 16.5162 60.6076 15.9256 60.9711 15.4259C61.4707 14.7444 62.1069 14.1992 62.8338 13.7903C63.4698 13.4268 64.1059 13.1997 64.8328 13.0634C65.787 12.8816 66.741 12.8362 67.6952 12.8816C68.2857 12.8816 68.8765 13.0179 69.467 13.1542C70.2394 13.3814 70.9209 13.6994 71.5571 14.1537C72.1022 14.5172 72.5565 14.9715 72.92 15.5167C73.4198 16.1982 73.7833 16.9706 74.0558 17.7883C74.1013 17.9701 74.1922 18.2881 74.2829 18.6061Z" fill="black"/>
<path d="M10.4863 27.244C10.4863 27.1755 10.4863 27.107 10.4863 26.9699C10.4863 20.7322 10.4863 14.4945 10.4863 8.18824C10.4863 8.11969 10.4863 8.05115 10.4863 7.91406C12.8024 7.91406 15.0739 7.91406 17.3899 7.91406C17.3899 7.9826 17.3899 8.05115 17.3899 8.11969C17.3899 14.4259 17.3899 20.6636 17.3899 26.9699C17.3899 27.0384 17.3899 27.107 17.3899 27.1755C15.0739 27.244 12.7579 27.244 10.4863 27.244Z" fill="black"/>
<path d="M29.8145 20.483C30.3972 20.483 30.9801 20.483 31.5628 20.4316C32.1904 20.4316 32.8181 20.3802 33.4456 20.3802C34.0732 20.3802 34.7009 20.3288 35.3284 20.3288C35.7767 20.3288 36.225 20.2773 36.7182 20.2773C36.7182 20.3288 36.7182 20.3802 36.7182 20.4316C36.7182 23.5676 36.7182 26.6522 36.7182 29.788C36.7182 29.8394 36.7182 29.8908 36.7182 29.9424C34.4318 29.9424 32.1007 29.9424 29.8145 29.9424C29.8145 29.8908 29.8145 29.8394 29.8145 29.788C29.8145 26.755 29.8145 23.6704 29.8145 20.6372C29.8145 20.5344 29.8145 20.5344 29.8145 20.483Z" fill="black"/>
<path d="M20.1494 23.075C20.1494 22.7525 20.1494 22.4301 20.1494 22.1075C20.1494 18.8825 20.1494 15.6574 20.1494 12.4324C20.1494 12.3518 20.1494 12.1905 20.1494 12.0293C22.4656 12.0293 24.7371 12.0293 27.0531 12.0293C27.0531 12.1099 27.0531 12.1905 27.0531 12.1905C27.0531 15.7381 27.0531 19.2856 27.0531 22.8332C27.0531 22.9137 27.0531 22.9137 27.0531 22.9943C24.7371 23.075 22.4209 23.075 20.1494 23.075Z" fill="black"/>
<path d="M20.1533 18.9629C22.4695 18.9629 24.741 18.9629 27.0571 18.9629C27.0571 19.9252 27.0571 20.9294 27.0571 21.8917C27.0571 22.7703 27.0571 23.6071 27.0571 24.4857C24.741 24.4857 22.4695 24.4857 20.1533 24.4857C20.1533 24.2348 20.1533 24.0256 20.1533 23.7745C20.1533 22.2265 20.1533 20.6783 20.1533 19.1303C20.1533 19.0466 20.1533 19.0047 20.1533 18.9629Z" fill="black"/>
<path d="M20.1553 24.4902C22.4715 24.4902 24.743 24.4902 27.059 24.4902C27.059 26.1853 27.059 27.8805 27.059 29.5756C27.059 29.7396 27.059 29.849 27.059 30.0131C24.743 30.0131 22.4715 30.0131 20.1553 30.0131C20.1553 29.9584 20.1553 29.9037 20.1553 29.9037C20.1553 28.0992 20.1553 26.3494 20.1553 24.5449C20.1553 24.5449 20.1553 24.5449 20.1553 24.4902Z" fill="black"/>
<path d="M17.3899 25.8047C17.3899 27.1855 17.3899 28.5661 17.3899 29.9469C15.1037 29.9469 12.7726 29.9469 10.4863 29.9469V29.9024C10.4863 28.5216 10.4863 27.1855 10.4863 25.8047C12.7726 25.8047 15.1037 25.8047 17.3899 25.8047Z" fill="black"/>
<path d="M17.3802 25.8238C15.0642 25.8238 12.7926 25.8238 10.4766 25.8238C10.4766 24.8354 10.4766 23.894 10.4766 22.9055C10.4766 22.4819 10.4766 22.0583 10.4766 21.6816C12.7926 21.6816 15.0642 21.6816 17.3802 21.6816C17.3802 23.0468 17.3802 24.4589 17.3802 25.8238Z" fill="black"/>
<path d="M75.2314 11.4389C75.2314 11.0755 75.2314 10.712 75.2314 10.3486C75.2769 9.98509 75.4131 9.62164 75.6404 9.34903C75.9584 8.98558 76.3218 8.66754 76.8215 8.57667C76.9124 8.57667 77.0033 8.53125 77.0942 8.53125C77.912 8.53125 78.6844 8.53125 79.5021 8.53125C79.5021 9.80336 79.5021 11.0755 79.5021 12.3476C79.3659 12.2113 79.275 12.1204 79.0932 11.9841C78.7752 11.7115 78.3662 11.5298 77.9573 11.5298C77.0942 11.4844 76.2309 11.4844 75.4131 11.4844C75.3676 11.4389 75.2769 11.4389 75.2314 11.4389Z" fill="black"/>
<path d="M112.313 28.2796C112.313 28.4612 112.313 28.643 112.313 28.8701C112.177 28.8701 112.041 28.8701 111.904 28.8701C111.904 28.3703 111.904 27.8707 111.904 27.3708C112.222 27.3254 112.586 27.2799 112.904 27.3708C112.995 27.4163 113.131 27.5526 113.176 27.6434C113.222 27.8252 113.131 28.0069 112.995 28.0978C113.086 28.3703 113.176 28.5976 113.267 28.8701C113.131 28.8701 113.04 28.8701 112.949 28.8701C112.904 28.8701 112.858 28.8247 112.813 28.7792C112.768 28.7339 112.768 28.643 112.768 28.5976C112.677 28.2796 112.631 28.2341 112.313 28.2796ZM112.313 27.9616C112.404 27.9616 112.495 27.9616 112.586 27.9616C112.722 27.9616 112.813 27.8252 112.768 27.6888C112.722 27.5981 112.495 27.5072 112.404 27.5527C112.359 27.5981 112.359 27.6888 112.313 27.7798C112.313 27.8252 112.313 27.8707 112.313 27.9616Z" fill="black"/>
</svg>
