<svg width="123" height="25" viewBox="0 0 123 25" fill="none" xmlns="http://www.w3.org/2000/svg">
<path fill-rule="evenodd" clip-rule="evenodd" d="M19.8157 4.2494L20.6417 0.333984H4.14688L1.98091 10.5811L0.117188 18.9534H17.0688L17.9955 14.6792H8.82467L9.57687 11.1564H17.324L18.2575 7.0819H10.5003L11.0612 4.41184H19.7821L19.8157 4.2494ZM38.5166 10.9666H32.9554L44.1411 24.6593H36.6618L31.8584 18.7347C30.0436 19.0831 28.2006 19.2591 26.3536 19.2605C24.522 19.3009 21.3741 18.8695 19.9679 17.5754C18.387 16.1212 18.8512 13.4208 19.2093 11.3373C19.2819 10.9147 19.3502 10.5175 19.3961 10.1612C19.6156 8.41548 20.184 6.20133 21.1813 4.76905C23.1258 1.99549 26.7924 1.58771 29.8771 1.70229C30.1433 1.71225 30.4199 1.72019 30.7039 1.72834C32.8232 1.78916 35.3669 1.86215 37.1636 2.87844C38.5964 3.67379 39.2446 4.90048 39.1581 6.58553C39.02 8.05626 38.8058 9.51864 38.5166 10.9666ZM27.4705 16.2475C30.6783 16.2745 31.5127 13.9087 32.1243 11.0981C32.1695 10.8901 32.2199 10.6723 32.2718 10.4477C32.8038 8.14679 33.498 5.14396 30.4756 4.91059C27.1581 4.65448 26.0511 7.71788 25.6156 10.6397C25.5799 10.8803 25.5339 11.141 25.4859 11.4139C25.123 13.4726 24.6381 16.2238 27.4705 16.2475ZM62.9884 2.58602L61.2241 10.5874L59.46 18.6527H66.1259L69.7222 2.58602H62.9884ZM86.6767 2.58602L85.8963 5.77516H78.2309L77.579 8.76604H84.0754L83.6869 10.5874L83.4268 11.7569H76.8661L75.3729 18.6527H68.6805L72.1873 2.58602H86.6767ZM41.9749 2.58602H48.6935L46.1774 13.9922C45.8718 15.386 47.1684 16.1132 48.2804 16.2075C48.9825 16.2731 49.6841 16.0763 50.2502 15.655C50.8164 15.2337 51.2071 14.6175 51.3475 13.9249L53.9946 2.58938H60.6494L58.0023 14.642C56.8669 17.7864 54.2398 19.0187 51.3374 19.3284C49.5278 19.4839 47.7057 19.3978 45.9188 19.0725L39.9762 11.9049L41.9749 2.58602ZM115.787 2.7365H122.224L113.792 10.136L119.329 18.653H111.088L108.397 13.7359L103.764 18.653H93.9132L93.5282 15.2666H86.7033L84.3234 18.653H79.6875L90.8874 2.7365H98.9206L100.454 15.8118L105.809 10.7964L100.594 2.7365H109.029L111.603 6.93238L115.787 2.7365ZM92.4839 6.37362L88.879 11.8801H93.1299L92.4839 6.37362Z" fill="#0E0E0E"/>
</svg>
