<svg width="135" height="25" viewBox="0 0 135 25" fill="none" xmlns="http://www.w3.org/2000/svg">
<path d="M0.303711 4.96842C1.32972 1.36758 4.06933 0.325479 7.42671 0.368453C8.89498 0.388149 10.4134 0.511697 11.8154 0.912786C14.2453 1.61111 15.4933 3.44823 15.522 5.96756C15.5506 8.39737 15.5291 10.8272 15.5291 13.257C15.5291 16.7092 14.0054 18.5678 10.5692 19.2482C8.55836 19.6457 6.54931 19.5956 4.55637 19.0888C2.25725 18.5051 0.892817 17.0118 0.303711 14.7628V4.96842ZM12.4511 9.95875C12.4511 8.7125 12.4762 7.46627 12.4457 6.22182C12.4063 4.60315 11.6973 3.56104 10.1036 3.31931C8.68906 3.10444 7.19393 3.10086 5.77936 3.3032C4.18034 3.53238 3.44979 4.54585 3.41934 6.18601C3.37457 8.64805 3.37637 11.1101 3.41934 13.5721C3.448 15.2857 4.22691 16.2956 5.91903 16.5265C7.25301 16.7092 8.65505 16.7038 9.98725 16.514C11.6507 16.2777 12.4153 15.2141 12.4493 13.5166C12.4744 12.3312 12.4547 11.1441 12.4529 9.95695L12.4511 9.95875Z" fill="black"/>
<path d="M84.6602 0.701448C85.912 0.701448 87.0131 0.654893 88.1072 0.731888C88.3954 0.751584 88.7501 1.09537 88.9182 1.38187C91.436 5.61835 93.9285 9.87095 96.4299 14.1182C96.5875 14.385 96.7629 14.641 97.1138 14.8649V0.746213H100.025V19.1819C98.8472 19.1819 97.6922 19.2231 96.5445 19.1497C96.2902 19.1336 95.9966 18.7486 95.83 18.4675C93.3018 14.2023 90.7931 9.92646 88.2774 5.65237C88.1179 5.3802 87.9425 5.11699 87.6147 4.89317V19.1837C86.7249 19.1837 85.9298 19.1891 85.1366 19.1837C84.492 19.1782 84.6693 18.6805 84.6675 18.3367C84.6549 15.5184 84.6602 12.6983 84.6602 9.8799C84.6602 7.17973 84.6602 4.47954 84.6602 1.77937C84.6602 1.45886 84.6602 1.14014 84.6602 0.701448Z" fill="black"/>
<path d="M32.0127 12.7638C33.4149 14.8462 34.8169 16.9268 36.3371 19.183C35.123 19.183 34.0935 19.2151 33.0693 19.1561C32.849 19.1436 32.6019 18.8303 32.4444 18.6027C31.3127 16.9644 30.2258 15.2956 29.0655 13.6805C28.8507 13.3815 28.3725 13.1219 28.0037 13.104C26.6106 13.0377 25.2139 13.0771 23.7062 13.0771V19.1239H20.5781V0.860064C20.6497 0.808137 20.6962 0.747257 20.7428 0.747257C23.9605 0.747257 27.1817 0.634451 30.3923 0.78665C33.2716 0.924524 34.5465 2.35519 34.7184 5.20398C34.7722 6.09211 34.7597 6.9838 34.7524 7.87372C34.7328 10.5829 34.3138 11.3349 32.0146 12.7656L32.0127 12.7638ZM23.7242 10.3913C25.855 10.3913 27.8766 10.4468 29.8927 10.3698C31.0728 10.325 31.5651 9.7019 31.5992 8.50579C31.6279 7.4977 31.6207 6.48962 31.6045 5.48152C31.5831 4.07772 31.019 3.47072 29.6045 3.40805C28.5051 3.35971 27.4002 3.39372 26.299 3.39192C25.4467 3.39192 24.5961 3.39192 23.7224 3.39192V10.3931L23.7242 10.3913Z" fill="black"/>
<path d="M134.673 16.4546C134.673 17.2854 134.704 17.9926 134.652 18.6945C134.64 18.8719 134.36 19.1745 134.204 19.1745C130.278 19.1781 126.351 19.1494 122.424 19.1243C122.401 19.1243 122.377 19.0902 122.308 19.0366V0.787109H134.555V3.34941H125.427V8.45433H133.898V11.1796H125.402V16.4546H134.673Z" fill="black"/>
<path d="M79.8494 19.1387H67.5605V0.787109H79.8046V3.3709H70.6367V8.46864H79.151V11.176H70.6367V16.4474H79.8494V19.1387Z" fill="black"/>
<path d="M61.8941 0.842806C61.7939 1.77389 61.708 2.55997 61.6184 3.38721C59.8171 3.26187 58.0803 3.10609 56.338 3.03625C55.4821 3.00223 54.6064 3.06491 53.7594 3.20098C52.5096 3.40154 51.8202 4.11059 51.797 5.37295C51.7396 8.39722 51.7414 11.4233 51.797 14.4476C51.8202 15.6437 52.4237 16.4315 53.6127 16.5282C55.4051 16.675 57.2225 16.5586 59.0275 16.487C59.1849 16.4816 59.4428 15.9803 59.4483 15.7045C59.4877 14.016 59.4679 12.3275 59.4679 10.5656H62.4456C62.4456 11.2353 62.4456 11.9103 62.4456 12.5854C62.4456 14.3365 62.4367 16.0859 62.4511 17.8371C62.4545 18.2955 62.3991 18.6142 61.8494 18.736C58.8341 19.4038 55.8008 19.8104 52.7299 19.2105C50.0189 18.6804 48.683 17.1334 48.6277 14.3974C48.5668 11.4018 48.5668 8.40438 48.6277 5.40876C48.683 2.72112 49.9205 1.19733 52.5597 0.647635C55.6306 0.00840122 58.7086 0.276986 61.8923 0.846387L61.8941 0.842806Z" fill="black"/>
<path d="M117.649 3.37268C116.016 3.24376 114.51 3.08261 112.999 3.01994C112.143 2.98413 111.269 3.04502 110.422 3.17931C109.015 3.40492 108.3 4.16413 108.272 5.59479C108.215 8.44179 108.207 11.2924 108.266 14.1394C108.3 15.7831 109.183 16.6533 110.974 16.6981C112.872 16.7447 114.775 16.5692 116.677 16.4814C116.942 16.4689 117.205 16.408 117.617 16.3489C117.703 17.1243 117.81 17.8709 117.846 18.6193C117.851 18.7483 117.569 18.9847 117.391 19.0168C114.65 19.5112 111.894 19.7636 109.138 19.1815C106.53 18.6302 105.174 17.0097 105.131 14.3542C105.083 11.3873 105.077 8.41851 105.131 5.45333C105.187 2.35385 107.115 0.514943 110.628 0.398556C112.788 0.326933 114.96 0.599098 117.126 0.711904C117.732 0.744135 117.964 1.00735 117.837 1.63047C117.726 2.17837 117.712 2.7442 117.647 3.3709L117.649 3.37268Z" fill="black"/>
<path d="M43.3543 19.1574H40.3926V0.775391H43.3543V19.1574Z" fill="black"/>
<path d="M14.2585 22.1133V24.7167H1.55957V22.1133H14.2585Z" fill="black"/>
</svg>
