<svg width="118" height="39" viewBox="0 0 118 39" fill="none" xmlns="http://www.w3.org/2000/svg">
<path d="M19.1807 9.52881H14.9144C14.6129 9.52893 14.3143 9.46964 14.0357 9.35433C13.7571 9.23903 13.504 9.06997 13.2908 8.85681C13.0775 8.64366 12.9084 8.39057 12.793 8.11204C12.6776 7.83349 12.6181 7.53495 12.6182 7.23344V2.96725C12.6181 2.66576 12.6776 2.36719 12.793 2.08866C12.9084 1.81011 13.0775 1.55704 13.2908 1.34388C13.504 1.13072 13.7571 0.961664 14.0357 0.846361C14.3143 0.731056 14.6129 0.671765 14.9144 0.671875H19.1807C19.7892 0.672097 20.3729 0.914028 20.8032 1.34447C21.2335 1.77491 21.4753 2.35863 21.4753 2.96725V7.23344C21.4753 7.84221 21.2335 8.42605 20.8029 8.85652C20.3724 9.28698 19.7894 9.52881 19.1807 9.52881Z" fill="black"/>
<path d="M8.145 19.0602H3.34587C3.00669 19.0605 2.67078 18.994 2.35733 18.8644C2.04389 18.7347 1.75906 18.5447 1.51915 18.305C1.27923 18.0652 1.08893 17.7804 0.959137 17.4672C0.829338 17.1538 0.762585 16.8179 0.762695 16.4787V11.678C0.762917 10.9931 1.03517 10.3362 1.51959 9.85199C2.004 9.36775 2.66092 9.0957 3.34587 9.0957H8.145C8.82981 9.09593 9.4865 9.36807 9.97074 9.85228C10.455 10.3365 10.7271 10.9932 10.7273 11.678V16.4787C10.7274 16.8179 10.6607 17.1536 10.531 17.4669C10.4012 17.7803 10.211 18.0649 9.97118 18.3047C9.73136 18.5444 9.44662 18.7346 9.13328 18.8642C8.81993 18.9938 8.4841 19.0604 8.145 19.0602Z" fill="black"/>
<path d="M7.68728 29.0819H4.75611C4.54874 29.0821 4.34339 29.0413 4.15178 28.9621C3.96017 28.8827 3.78606 28.7665 3.63939 28.6199C3.49273 28.4732 3.37638 28.2992 3.297 28.1076C3.21761 27.9162 3.17676 27.7108 3.17676 27.5034V24.5732C3.17676 23.699 3.88529 22.9922 4.75611 22.9922H7.68728C8.55894 22.9922 9.26579 23.699 9.26579 24.5732V27.5034C9.26591 27.7107 9.22515 27.916 9.14587 28.1076C9.06658 28.2992 8.95031 28.4732 8.80371 28.6198C8.6571 28.7664 8.48305 28.8827 8.29148 28.9619C8.09992 29.0413 7.89462 29.0821 7.68728 29.0819Z" fill="black"/>
<path d="M15.5673 38.3211H12.1008C11.8558 38.3215 11.6131 38.2734 11.3867 38.1796C11.1602 38.0861 10.9545 37.9487 10.7812 37.7754C10.608 37.6021 10.4706 37.3963 10.3769 37.1699C10.2832 36.9435 10.2351 36.7008 10.2354 36.4558V32.9902C10.2354 31.9579 11.071 31.1248 12.1008 31.1248H15.5673C16.597 31.1248 17.4327 31.9579 17.4327 32.9902V36.4567C17.4327 37.4881 16.597 38.3211 15.5673 38.3211ZM28.2683 11.2811H25.8674C25.525 11.2811 25.1966 11.1451 24.9544 10.9031C24.7122 10.661 24.5761 10.3327 24.5757 9.99034V7.59206C24.5757 6.87853 25.153 6.29883 25.8665 6.29883H28.2683C28.9809 6.29883 29.5581 6.87853 29.5581 7.59206V9.99034C29.5581 10.7014 28.9809 11.2811 28.2683 11.2811Z" fill="black"/>
<path d="M80.8 12.9363C80.9815 12.9363 81.1612 12.9005 81.3288 12.831C81.4964 12.7614 81.6486 12.6595 81.7769 12.5311C81.9051 12.4027 82.0068 12.2502 82.0759 12.0825C82.1451 11.9147 82.1807 11.735 82.1802 11.5535C82.1802 11.2797 82.099 11.0121 81.9469 10.7845C81.7947 10.5569 81.5784 10.3795 81.3254 10.2749C81.0723 10.1703 80.794 10.1431 80.5255 10.1968C80.2571 10.2504 80.0105 10.3825 79.8171 10.5764C79.6238 10.7702 79.4922 11.017 79.4393 11.2856C79.3863 11.5542 79.4141 11.8325 79.5194 12.0853C79.6246 12.3381 79.8025 12.5539 80.0304 12.7055C80.2583 12.8572 80.5262 12.9369 80.8 12.9363Z" fill="black"/>
<path d="M30.2928 27.6232C30.0786 27.9444 29.7305 28.1041 29.3559 28.1041C29.1319 28.105 28.9115 28.0501 28.7142 27.9444C28.4198 27.7562 28.2056 27.3555 28.2056 26.954C28.2056 26.7666 28.2591 26.5792 28.3662 26.4186L31.5767 21.3636L28.3662 16.3085C28.2608 16.1401 28.2051 15.9452 28.2056 15.7464C28.2056 15.3717 28.393 14.971 28.741 14.7828C28.919 14.6774 29.1222 14.6222 29.329 14.623C29.7038 14.623 30.0786 14.7828 30.2928 15.1048L32.9136 19.2506L35.562 15.1048C35.7761 14.7828 36.1509 14.623 36.5257 14.623C36.7389 14.623 36.9272 14.6765 37.1137 14.7828C37.4609 14.971 37.6482 15.3717 37.6482 15.7464C37.6482 15.9339 37.5948 16.1479 37.4876 16.3085L34.278 21.3636L37.4876 26.4195C37.5948 26.5792 37.6482 26.7666 37.6482 26.9547C37.6482 27.3555 37.4342 27.7562 37.1397 27.9444C36.9424 28.0502 36.7218 28.1052 36.498 28.1041C36.1241 28.1041 35.7761 27.9444 35.5611 27.6232L32.9136 23.5033L30.2928 27.6232ZM41.7363 16.2007C42.9971 15.0607 44.6375 14.4314 46.3371 14.4356C47.2482 14.4312 48.1513 14.6074 48.9938 14.9539C49.8364 15.3005 50.602 15.8106 51.2462 16.4549C51.8905 17.099 52.4008 17.8646 52.7474 18.7071C53.0941 19.5497 53.2704 20.4525 53.2661 21.3636C53.2661 25.1629 50.1902 28.2388 46.338 28.2388C44.5722 28.2388 42.94 27.5697 41.7372 26.4729V32.3846C41.7372 32.9727 41.2018 33.4804 40.587 33.4804C40.0247 33.4804 39.4635 32.9727 39.4635 32.3846V15.6385C39.4635 15.0505 40.0247 14.5419 40.587 14.5419C41.2018 14.5419 41.7363 15.0505 41.7363 15.6377V16.2007ZM46.3371 16.7359C43.7692 16.7359 41.7363 18.7688 41.7363 21.3636C41.7363 23.9317 43.7692 25.9644 46.3371 25.9644C48.9329 25.9644 50.9656 23.9317 50.9656 21.3636C50.9656 18.7688 48.9321 16.7359 46.3371 16.7359ZM72.8508 20.1072V27.0343C72.8508 27.6232 72.2885 28.1301 71.7273 28.1301C71.1116 28.1301 70.5762 27.6223 70.5762 27.0343V15.6394C70.5762 15.0505 71.1116 14.5427 71.7273 14.5427C72.2627 14.5427 72.8232 15.0237 72.8508 15.5858C73.7868 14.8639 74.9905 14.4624 76.3013 14.4356C77.0233 14.4356 77.5579 14.9969 77.5579 15.5591C77.5579 16.1738 76.9973 16.7359 76.3013 16.7359C74.5087 16.7895 72.8508 17.4319 72.8508 20.1072ZM80.8211 14.5427C80.2062 14.5427 79.6709 15.0505 79.6709 15.6385V27.0343C79.6709 27.6232 80.2062 28.1301 80.8211 28.1301C81.3832 28.1301 81.9446 27.6223 81.9446 27.0343V15.6394C81.9446 15.0505 81.3832 14.5427 80.8211 14.5427ZM95.3474 15.6385C95.3474 15.0505 95.8809 14.5427 96.4966 14.5427C97.0589 14.5427 97.6201 15.0505 97.6201 15.6385V27.0343C97.6201 27.6232 97.0589 28.1301 96.4966 28.1301C95.8809 28.1301 95.3474 27.6223 95.3474 27.0343V26.4722C94.0833 27.608 92.4441 28.2366 90.7448 28.2371C89.8339 28.2415 88.9312 28.0655 88.0886 27.719C87.2462 27.3726 86.4807 26.8625 85.8366 26.2184C85.1924 25.5745 84.6822 24.8092 84.3355 23.9668C83.9888 23.1244 83.8124 22.2217 83.8167 21.3109C83.8167 17.5122 86.8934 14.4356 90.7448 14.4356C92.5107 14.4356 94.116 15.1048 95.3474 16.2015V15.6385ZM90.7448 25.9375C93.3129 25.9375 95.3474 23.9048 95.3474 21.31C95.3518 20.7044 95.2358 20.104 95.006 19.5437C94.7762 18.9834 94.4373 18.4745 94.0091 18.0463C93.5807 17.6182 93.0716 17.2794 92.5111 17.05C91.9509 16.8204 91.3503 16.7047 90.7448 16.7092C88.1507 16.7092 86.1188 18.7419 86.1188 21.31C86.1188 23.9048 88.1507 25.9375 90.7448 25.9375ZM109.203 20.2402C109.203 18.3413 107.545 16.6825 105.645 16.6825C103.799 16.6825 102.087 17.4319 102.087 20.1063V27.0343C102.087 27.6232 101.525 28.1301 100.963 28.1301C100.347 28.1301 99.8134 27.6223 99.8134 27.0343V15.6394C99.8134 15.0505 100.348 14.5427 100.963 14.5427C101.498 14.5427 102.06 15.0237 102.087 15.5858C103.05 14.8363 104.281 14.4356 105.617 14.4356C108.721 14.4356 111.476 16.8698 111.476 19.919V27.0343C111.476 27.6232 110.916 28.131 110.353 28.131C109.737 28.131 109.203 27.6232 109.203 27.035V20.2402ZM27.5732 20.9362C27.5196 17.4312 24.3902 14.4365 20.6987 14.4365C16.8465 14.4365 13.7706 17.5122 13.7706 21.31C13.7662 22.2211 13.9423 23.124 14.2889 23.9665C14.6355 24.8091 15.1457 25.5745 15.7899 26.2187C16.4342 26.863 17.1996 27.373 18.0422 27.7197C18.8847 28.0663 19.7876 28.2424 20.6987 28.238C22.544 28.238 24.2572 27.5153 25.4869 26.2856C25.7278 26.0714 25.8884 25.7502 25.8884 25.429C25.8884 24.8142 25.353 24.2796 24.7382 24.2796C24.3902 24.2796 24.0689 24.4929 23.829 24.7347C23.0527 25.5629 21.9025 25.9375 20.6987 25.9375C18.3982 25.9375 16.5278 24.3616 16.1246 22.1683H26.4505C26.4582 22.1683 26.4649 22.1659 26.4724 22.1659H26.5033C26.5226 22.1642 26.5418 22.1575 26.5618 22.1549C26.6012 22.1491 26.6404 22.1433 26.6789 22.1315C26.9381 22.0573 27.1659 21.9002 27.3274 21.6844C27.4888 21.4685 27.5752 21.2058 27.5732 20.9362ZM20.6987 16.7101C22.7733 16.7101 24.4964 18.0401 25.0845 19.8955H16.2861C16.8741 18.0409 18.5999 16.7101 20.6987 16.7101ZM68.6522 20.9362C68.5978 17.4312 65.4685 14.4365 61.7769 14.4365C57.9247 14.4365 54.8471 17.5122 54.8471 21.31C54.8429 22.2211 55.0193 23.1241 55.3661 23.9667C55.7129 24.8092 56.2231 25.5747 56.8675 26.2189C57.5119 26.863 58.2775 27.3732 59.1201 27.7197C59.9628 28.0663 60.8658 28.2424 61.7769 28.238C63.6222 28.238 65.3346 27.5153 66.5651 26.2856C66.806 26.0714 66.9666 25.7502 66.9666 25.429C66.9666 24.8142 66.4312 24.2796 65.8164 24.2796C65.4685 24.2796 65.1472 24.4929 64.9062 24.7347C64.1309 25.5629 62.9798 25.9375 61.7777 25.9375C59.4773 25.9375 57.6052 24.3616 57.202 22.1683H67.5104C67.5179 22.1683 67.5254 22.1659 67.5321 22.1659H67.5815C67.6124 22.1633 67.6426 22.1541 67.6735 22.1474C67.6886 22.144 67.7044 22.1433 67.7196 22.139C67.9875 22.0724 68.2252 21.9175 68.3943 21.6992C68.5635 21.481 68.6543 21.2122 68.6522 20.9362ZM61.7769 16.7101C63.8515 16.7101 65.5746 18.0401 66.1636 19.8955H57.3634C57.9514 18.0409 59.6772 16.7101 61.7769 16.7101ZM113.886 28.1385C113.862 28.1389 113.838 28.1345 113.815 28.1255C113.792 28.1165 113.771 28.1032 113.754 28.0861C113.736 28.0692 113.722 28.0489 113.712 28.0263C113.703 28.0038 113.698 27.9797 113.697 27.9553V26.0255H113.266C113.241 26.025 113.217 26.0198 113.195 26.0101C113.172 26.0003 113.152 25.9862 113.135 25.9687C113.118 25.9511 113.105 25.9304 113.096 25.9078C113.087 25.885 113.083 25.8607 113.083 25.8363C113.083 25.7276 113.162 25.6466 113.266 25.6466H114.514C114.617 25.6466 114.696 25.7285 114.696 25.8363C114.697 25.8856 114.678 25.9331 114.644 25.9684C114.61 26.0038 114.563 26.0244 114.514 26.0255H114.075V27.9553C114.076 27.9799 114.071 28.0044 114.061 28.0272C114.052 28.0499 114.038 28.0705 114.02 28.0878C114.003 28.1049 113.982 28.1183 113.958 28.1272C113.936 28.136 113.911 28.1394 113.886 28.1385ZM116.117 28.1418C116.013 28.1418 115.953 28.0666 115.931 27.9945L115.394 26.4161V27.9553C115.394 27.9799 115.389 28.0044 115.38 28.0272C115.37 28.0499 115.356 28.0705 115.339 28.0878C115.321 28.1049 115.3 28.1183 115.277 28.1272C115.254 28.136 115.229 28.1402 115.205 28.1392C115.18 28.1397 115.156 28.1351 115.133 28.1261C115.11 28.1169 115.09 28.1035 115.072 28.0864C115.054 28.0693 115.04 28.049 115.031 28.0264C115.021 28.004 115.016 27.9797 115.016 27.9553V25.9192C115.016 25.767 115.148 25.6348 115.3 25.6348C115.42 25.6348 115.533 25.7209 115.573 25.844L116.117 27.4374L116.657 25.844C116.675 25.7846 116.712 25.7327 116.761 25.6951C116.811 25.6576 116.871 25.6365 116.933 25.6348C117.084 25.6348 117.217 25.767 117.217 25.9192V27.9553C117.218 27.9799 117.213 28.0044 117.203 28.0272C117.194 28.0499 117.18 28.0705 117.162 28.0878C117.144 28.1049 117.124 28.1183 117.1 28.1272C117.077 28.136 117.053 28.1402 117.028 28.1392C117.004 28.1397 116.979 28.1353 116.956 28.1263C116.934 28.1173 116.913 28.1038 116.895 28.0867C116.877 28.0696 116.863 28.0492 116.854 28.0267C116.844 28.0041 116.839 27.9799 116.838 27.9553V26.4212L116.523 27.3538L116.306 27.9962C116.264 28.0925 116.2 28.1418 116.117 28.1418Z" fill="black"/>
</svg>
