<svg width="137" height="29" viewBox="0 0 137 29" fill="none" xmlns="http://www.w3.org/2000/svg">
<mask id="mask0_183_1682" style="mask-type:luminance" maskUnits="userSpaceOnUse" x="0" y="0" width="137" height="29">
<path d="M136.357 0.257812H0.297852V28.735H136.357V0.257812Z" fill="white"/>
</mask>
<g mask="url(#mask0_183_1682)">
<path d="M21.7628 0.255859H0.294922V6.21017H21.7628V0.255859Z" fill="black" fill-opacity="0.8"/>
<path d="M28.7501 0.255859H23.5771V6.21017H28.7501V0.255859Z" fill="black" fill-opacity="0.8"/>
<path d="M16.3302 7.79688H0.293945V13.7253H16.3302V7.79688Z" fill="black" fill-opacity="0.8"/>
<path d="M28.7492 7.79688H18.1445V13.7253H28.7492V7.79688Z" fill="black" fill-opacity="0.8"/>
<path d="M10.8986 15.2637H0.293945V21.1921H10.8986V15.2637Z" fill="black" fill-opacity="0.8"/>
<path d="M28.7491 15.2637H12.7129V21.1921H28.7491V15.2637Z" fill="black" fill-opacity="0.8"/>
<path d="M5.46694 22.7852H0.293945V28.7135H5.46694V22.7852Z" fill="black" fill-opacity="0.8"/>
<path d="M28.7491 22.7832H7.28125V28.7116H28.7491V22.7832Z" fill="black" fill-opacity="0.8"/>
<path d="M45.454 8.79247H40.6689V6.17773H52.9548V8.79247H48.1697V22.7204H45.454V8.79247Z" fill="black" fill-opacity="0.8"/>
<path d="M52.3398 11.104H54.9005V13.1751C55.3398 11.8548 56.6334 10.9746 57.9523 10.9746C58.2889 10.9746 58.5989 11.0004 58.9612 11.0781V13.7188C58.5214 13.5893 58.1591 13.5117 57.694 13.5117C56.2194 13.5117 54.9005 14.7543 54.9005 17.0842V22.7796H52.3398V11.104Z" fill="black" fill-opacity="0.8"/>
<path d="M60.9492 11.1152H63.5095V17.6649C63.5095 19.5289 64.3374 20.668 65.8373 20.668C67.4927 20.668 68.6565 19.3478 68.6565 16.8366V11.1152H71.2175V22.765H68.6565V21.1858C67.9842 22.3507 66.7428 22.998 65.2683 22.998C62.6046 22.998 60.9492 21.0563 60.9492 18.0792V11.1152Z" fill="black" fill-opacity="0.8"/>
<path d="M75.0053 18.3107C75.8585 19.6309 77.2292 20.4335 78.8328 20.4335C80.4366 20.4335 81.497 19.6309 81.497 18.3884C81.497 17.2234 80.7213 16.4467 79.1435 15.8772L77.3331 15.23C74.7204 14.2721 73.4273 12.8224 73.4273 10.5701C73.4273 7.67057 75.7293 5.91016 78.7811 5.91016C80.8247 5.91016 82.5576 6.73858 83.7731 8.16244L81.8851 10.0005C81.0572 9.01676 80.0226 8.47311 78.7552 8.47311C77.3589 8.47311 76.1691 9.19801 76.1691 10.3888C76.1691 11.5797 76.9706 12.1492 78.6779 12.7706L80.359 13.3919C82.7901 14.298 84.2646 15.7737 84.2388 18.2331C84.2388 21.1325 81.9627 23.0223 78.7294 23.0223C76.0652 23.0223 73.8671 21.8056 72.8584 20.0452L75.0053 18.3107Z" fill="black" fill-opacity="0.8"/>
<path d="M99.849 10.8613C101.53 10.8613 102.901 11.7157 103.574 12.6476V11.0943H106.135V22.744H103.574V21.1907C102.927 22.1227 101.53 22.977 99.849 22.977C96.6681 22.977 94.2627 20.2587 94.2627 16.9192C94.2627 13.5796 96.6681 10.8613 99.849 10.8613ZM100.315 13.1913C98.2458 13.1913 96.8489 14.8222 96.8489 16.9192C96.8489 19.0162 98.2458 20.6472 100.315 20.6472C102.384 20.6472 103.781 19.0162 103.781 16.9192C103.781 14.8222 102.384 13.1913 100.315 13.1913Z" fill="black" fill-opacity="0.8"/>
<path d="M113.818 27.8441C111.542 27.8441 109.525 26.9897 108.387 25.6954L109.939 23.8573C110.922 24.9187 112.241 25.5658 113.793 25.5658C115.706 25.5658 117.284 24.2974 117.284 21.9416V20.8802C116.586 21.9156 115.163 22.6923 113.56 22.6923C110.43 22.6923 107.999 20.0776 107.999 16.7638C107.999 13.4502 110.43 10.8613 113.56 10.8613C115.163 10.8613 116.586 11.638 117.284 12.6476V11.0943H119.845V21.9416C119.845 26.006 117.259 27.8441 113.818 27.8441ZM114.051 20.3106C116.017 20.3106 117.517 18.809 117.517 16.738C117.517 14.6669 116.043 13.1654 114.051 13.1654C112.06 13.1654 110.585 14.6669 110.585 16.738C110.585 18.809 112.086 20.3106 114.051 20.3106Z" fill="black" fill-opacity="0.8"/>
<path d="M127.68 10.8613C130.732 10.8613 133.267 12.8806 133.267 16.6344C133.267 16.8933 133.267 17.1004 133.241 17.4629H124.111C124.214 19.3786 125.766 20.6213 127.68 20.6213C129.309 20.6213 130.396 19.8705 130.991 18.8609L132.931 20.2587C131.896 21.9156 130.086 22.9511 127.628 22.9511C124.111 22.9511 121.576 20.44 121.576 16.8933C121.628 13.502 124.162 10.8613 127.68 10.8613ZM124.24 15.5989H130.681C130.396 13.9161 129.051 13.01 127.577 13.01C126.103 13.0359 124.602 13.8902 124.24 15.5989Z" fill="black" fill-opacity="0.8"/>
<path d="M84.7432 11.1384V13.4166H87.1485V19.0344C87.1485 21.6749 88.8814 22.8918 91.1058 22.8918C91.8817 22.8918 92.5028 22.7882 93.0197 22.6329V20.3546C92.6579 20.4841 92.1406 20.5876 91.649 20.5876C90.3301 20.5876 89.7093 20.0441 89.7093 18.5942V13.3907H93.0197V11.1125H89.7093V7.90234H87.1485V9.35211C87.1485 10.3359 86.347 11.1125 85.3898 11.1384H84.7432Z" fill="black" fill-opacity="0.8"/>
<path d="M132.839 8.06221H132.215V7.72852H133.805V8.06221H133.181V9.80729H132.839V8.06221ZM134.377 7.72852H134.716L135.33 9.05501L135.942 7.72852H136.281V9.80729H135.939V8.4919L135.327 9.82955L134.711 8.49466V9.80729H134.377V7.72852Z" fill="black" fill-opacity="0.8"/>
</g>
</svg>
